<svg width="214" height="38" viewBox="0 0 214 38" fill="none" xmlns="http://www.w3.org/2000/svg">
<ellipse cx="9" cy="8.5" rx="9" ry="8.5" transform="matrix(-1 0 0 1 30 0)" fill="#FF6262"/>
<circle cx="8.5" cy="8.5" r="8.5" transform="matrix(-1 0 0 1 17 21)" fill="#4690FF"/>
<circle cx="8.5" cy="8.5" r="8.5" transform="matrix(-1 0 0 1 41 21)" fill="#FFD15C"/>
<path d="M65.36 26.192C64.272 26.192 63.32 25.952 62.504 25.472C61.688 24.992 61.048 24.264 60.584 23.288C60.136 22.296 59.912 21.048 59.912 19.544C59.912 18.024 60.128 16.776 60.56 15.8C60.992 14.824 61.616 14.096 62.432 13.616C63.248 13.136 64.224 12.896 65.36 12.896C66.576 12.896 67.664 13.176 68.624 13.736C69.6 14.28 70.368 15.048 70.928 16.04C71.504 17.032 71.792 18.2 71.792 19.544C71.792 20.904 71.504 22.08 70.928 23.072C70.368 24.064 69.6 24.832 68.624 25.376C67.664 25.92 66.576 26.192 65.36 26.192ZM57.728 30.656V13.088H61.304V15.728L61.232 19.568L61.472 23.384V30.656H57.728ZM64.712 23.12C65.336 23.12 65.888 22.976 66.368 22.688C66.864 22.4 67.256 21.992 67.544 21.464C67.848 20.92 68 20.28 68 19.544C68 18.792 67.848 18.152 67.544 17.624C67.256 17.096 66.864 16.688 66.368 16.4C65.888 16.112 65.336 15.968 64.712 15.968C64.088 15.968 63.528 16.112 63.032 16.4C62.536 16.688 62.144 17.096 61.856 17.624C61.568 18.152 61.424 18.792 61.424 19.544C61.424 20.28 61.568 20.92 61.856 21.464C62.144 21.992 62.536 22.4 63.032 22.688C63.528 22.976 64.088 23.12 64.712 23.12ZM82.0074 26V23.48L81.7674 22.928V18.416C81.7674 17.616 81.5194 16.992 81.0234 16.544C80.5434 16.096 79.7994 15.872 78.7914 15.872C78.1034 15.872 77.4234 15.984 76.7514 16.208C76.0954 16.416 75.5354 16.704 75.0714 17.072L73.7274 14.456C74.4314 13.96 75.2794 13.576 76.2714 13.304C77.2634 13.032 78.2714 12.896 79.2954 12.896C81.2634 12.896 82.7914 13.36 83.8794 14.288C84.9674 15.216 85.5114 16.664 85.5114 18.632V26H82.0074ZM78.0714 26.192C77.0634 26.192 76.1994 26.024 75.4794 25.688C74.7594 25.336 74.2074 24.864 73.8234 24.272C73.4394 23.68 73.2474 23.016 73.2474 22.28C73.2474 21.512 73.4314 20.84 73.7994 20.264C74.1834 19.688 74.7834 19.24 75.5994 18.92C76.4154 18.584 77.4794 18.416 78.7914 18.416H82.2234V20.6H79.1994C78.3194 20.6 77.7114 20.744 77.3754 21.032C77.0554 21.32 76.8954 21.68 76.8954 22.112C76.8954 22.592 77.0794 22.976 77.4474 23.264C77.8314 23.536 78.3514 23.672 79.0074 23.672C79.6314 23.672 80.1914 23.528 80.6874 23.24C81.1834 22.936 81.5434 22.496 81.7674 21.92L82.3434 23.648C82.0714 24.48 81.5754 25.112 80.8554 25.544C80.1354 25.976 79.2074 26.192 78.0714 26.192ZM88.8999 26V8.192H92.6439V26H88.8999ZM102.527 26.192C101.055 26.192 99.7586 25.904 98.6386 25.328C97.5346 24.752 96.6786 23.968 96.0706 22.976C95.4626 21.968 95.1586 20.824 95.1586 19.544C95.1586 18.248 95.4546 17.104 96.0466 16.112C96.6546 15.104 97.4786 14.32 98.5186 13.76C99.5586 13.184 100.735 12.896 102.047 12.896C103.311 12.896 104.447 13.168 105.455 13.712C106.479 14.24 107.287 15.008 107.879 16.016C108.471 17.008 108.767 18.2 108.767 19.592C108.767 19.736 108.759 19.904 108.743 20.096C108.727 20.272 108.711 20.44 108.695 20.6H98.2066V18.416H106.727L105.287 19.064C105.287 18.392 105.151 17.808 104.879 17.312C104.607 16.816 104.231 16.432 103.751 16.16C103.271 15.872 102.711 15.728 102.071 15.728C101.431 15.728 100.863 15.872 100.367 16.16C99.8866 16.432 99.5106 16.824 99.2386 17.336C98.9666 17.832 98.8306 18.424 98.8306 19.112V19.688C98.8306 20.392 98.9826 21.016 99.2866 21.56C99.6066 22.088 100.047 22.496 100.607 22.784C101.183 23.056 101.855 23.192 102.623 23.192C103.311 23.192 103.911 23.088 104.423 22.88C104.951 22.672 105.431 22.36 105.863 21.944L107.855 24.104C107.263 24.776 106.519 25.296 105.623 25.664C104.727 26.016 103.695 26.192 102.527 26.192ZM116.539 26.192C115.019 26.192 113.835 25.808 112.987 25.04C112.139 24.256 111.715 23.096 111.715 21.56V10.232H115.459V21.512C115.459 22.056 115.603 22.48 115.891 22.784C116.179 23.072 116.571 23.216 117.067 23.216C117.659 23.216 118.163 23.056 118.579 22.736L119.587 25.376C119.203 25.648 118.739 25.856 118.195 26C117.667 26.128 117.115 26.192 116.539 26.192ZM109.723 16.256V13.376H118.675V16.256H109.723ZM126.688 26.192C125.168 26.192 123.984 25.808 123.136 25.04C122.288 24.256 121.864 23.096 121.864 21.56V10.232H125.608V21.512C125.608 22.056 125.752 22.48 126.04 22.784C126.328 23.072 126.72 23.216 127.216 23.216C127.808 23.216 128.312 23.056 128.728 22.736L129.736 25.376C129.352 25.648 128.888 25.856 128.344 26C127.816 26.128 127.264 26.192 126.688 26.192ZM119.872 16.256V13.376H128.824V16.256H119.872ZM137.847 26.192C136.375 26.192 135.079 25.904 133.959 25.328C132.855 24.752 131.999 23.968 131.391 22.976C130.783 21.968 130.479 20.824 130.479 19.544C130.479 18.248 130.775 17.104 131.367 16.112C131.975 15.104 132.799 14.32 133.839 13.76C134.879 13.184 136.055 12.896 137.367 12.896C138.631 12.896 139.767 13.168 140.775 13.712C141.799 14.24 142.607 15.008 143.199 16.016C143.791 17.008 144.087 18.2 144.087 19.592C144.087 19.736 144.079 19.904 144.063 20.096C144.047 20.272 144.031 20.44 144.015 20.6H133.527V18.416H142.047L140.607 19.064C140.607 18.392 140.471 17.808 140.199 17.312C139.927 16.816 139.551 16.432 139.071 16.16C138.591 15.872 138.031 15.728 137.391 15.728C136.751 15.728 136.183 15.872 135.687 16.16C135.207 16.432 134.831 16.824 134.559 17.336C134.287 17.832 134.151 18.424 134.151 19.112V19.688C134.151 20.392 134.303 21.016 134.607 21.56C134.927 22.088 135.367 22.496 135.927 22.784C136.503 23.056 137.175 23.192 137.943 23.192C138.631 23.192 139.231 23.088 139.743 22.88C140.271 22.672 140.751 22.36 141.183 21.944L143.175 24.104C142.583 24.776 141.839 25.296 140.943 25.664C140.047 26.016 139.015 26.192 137.847 26.192ZM158.92 26.192C157.704 26.192 156.608 25.92 155.632 25.376C154.656 24.816 153.88 24.04 153.304 23.048C152.744 22.056 152.464 20.888 152.464 19.544C152.464 18.184 152.744 17.008 153.304 16.016C153.88 15.024 154.656 14.256 155.632 13.712C156.608 13.168 157.704 12.896 158.92 12.896C160.008 12.896 160.96 13.136 161.776 13.616C162.592 14.096 163.224 14.824 163.672 15.8C164.12 16.776 164.344 18.024 164.344 19.544C164.344 21.048 164.128 22.296 163.696 23.288C163.264 24.264 162.64 24.992 161.824 25.472C161.024 25.952 160.056 26.192 158.92 26.192ZM159.568 23.12C160.176 23.12 160.728 22.976 161.224 22.688C161.72 22.4 162.112 21.992 162.4 21.464C162.704 20.92 162.856 20.28 162.856 19.544C162.856 18.792 162.704 18.152 162.4 17.624C162.112 17.096 161.72 16.688 161.224 16.4C160.728 16.112 160.176 15.968 159.568 15.968C158.944 15.968 158.384 16.112 157.888 16.4C157.392 16.688 156.992 17.096 156.688 17.624C156.4 18.152 156.256 18.792 156.256 19.544C156.256 20.28 156.4 20.92 156.688 21.464C156.992 21.992 157.392 22.4 157.888 22.688C158.384 22.976 158.944 23.12 159.568 23.12ZM162.952 26V23.36L163.024 19.52L162.784 15.704V8.192H166.528V26H162.952ZM176.138 26.192C174.762 26.192 173.538 25.904 172.466 25.328C171.41 24.752 170.57 23.968 169.946 22.976C169.338 21.968 169.034 20.824 169.034 19.544C169.034 18.248 169.338 17.104 169.946 16.112C170.57 15.104 171.41 14.32 172.466 13.76C173.538 13.184 174.762 12.896 176.138 12.896C177.498 12.896 178.714 13.184 179.786 13.76C180.858 14.32 181.698 15.096 182.306 16.088C182.914 17.08 183.218 18.232 183.218 19.544C183.218 20.824 182.914 21.968 182.306 22.976C181.698 23.968 180.858 24.752 179.786 25.328C178.714 25.904 177.498 26.192 176.138 26.192ZM176.138 23.12C176.762 23.12 177.322 22.976 177.818 22.688C178.314 22.4 178.706 21.992 178.994 21.464C179.282 20.92 179.426 20.28 179.426 19.544C179.426 18.792 179.282 18.152 178.994 17.624C178.706 17.096 178.314 16.688 177.818 16.4C177.322 16.112 176.762 15.968 176.138 15.968C175.514 15.968 174.954 16.112 174.458 16.4C173.962 16.688 173.562 17.096 173.258 17.624C172.97 18.152 172.826 18.792 172.826 19.544C172.826 20.28 172.97 20.92 173.258 21.464C173.562 21.992 173.962 22.4 174.458 22.688C174.954 22.976 175.514 23.12 176.138 23.12ZM191.96 26.192C190.568 26.192 189.328 25.912 188.24 25.352C187.152 24.776 186.296 23.984 185.672 22.976C185.064 21.968 184.76 20.824 184.76 19.544C184.76 18.248 185.064 17.104 185.672 16.112C186.296 15.104 187.152 14.32 188.24 13.76C189.328 13.184 190.568 12.896 191.96 12.896C193.32 12.896 194.504 13.184 195.512 13.76C196.52 14.32 197.264 15.128 197.744 16.184L194.84 17.744C194.504 17.136 194.08 16.688 193.568 16.4C193.072 16.112 192.528 15.968 191.936 15.968C191.296 15.968 190.72 16.112 190.208 16.4C189.696 16.688 189.288 17.096 188.984 17.624C188.696 18.152 188.552 18.792 188.552 19.544C188.552 20.296 188.696 20.936 188.984 21.464C189.288 21.992 189.696 22.4 190.208 22.688C190.72 22.976 191.296 23.12 191.936 23.12C192.528 23.12 193.072 22.984 193.568 22.712C194.08 22.424 194.504 21.968 194.84 21.344L197.744 22.928C197.264 23.968 196.52 24.776 195.512 25.352C194.504 25.912 193.32 26.192 191.96 26.192ZM202.926 23.36L203.022 18.8L209.046 13.088H213.51L207.726 18.968L205.782 20.552L202.926 23.36ZM199.83 26V8.192H203.574V26H199.83ZM209.454 26L205.086 20.576L207.438 17.672L213.99 26H209.454Z" fill="black"/>
</svg>
