<svg width="106" height="24" viewBox="0 0 106 24" fill="none" xmlns="http://www.w3.org/2000/svg">
<path d="M0 12C0 18.6274 5.37258 24 12 24C18.6274 24 24 18.6274 24 12C24 5.37258 18.6274 0 12 0C5.37258 0 0 5.37258 0 12Z" fill="#FF6262"/>
<path d="M41 12C41 18.6274 46.3726 24 53 24C59.6274 24 65 18.6274 65 12C65 5.37258 59.6274 0 53 0C46.3726 0 41 5.37258 41 12Z" fill="#4690FF"/>
<path d="M82 12C82 18.6274 87.3726 24 94 24C100.627 24 106 18.6274 106 12C106 5.37258 100.627 0 94 0C87.3726 0 82 5.37258 82 12Z" fill="#FFD15C"/>
</svg>
